<?xml version="1.0" encoding="UTF-8"?>
<svg xmlns="http://www.w3.org/2000/svg" width="254" height="69" viewBox="0 0 254 69" fill="none">
  <path d="M26.4412 8.45312H22.8652V59.3832H26.4412V8.45312Z" fill="white"></path>
  <path d="M49.7857 36.5434C48.9084 36.5434 48.1201 36.3908 47.4208 36.0857C46.7343 35.7679 46.1939 35.3355 45.7997 34.7888C45.4056 34.2293 45.2021 33.5873 45.1895 32.8626H47.0394C47.103 33.4855 47.3572 34.0133 47.8023 34.4455C48.26 34.8651 48.9211 35.0749 49.7857 35.0749C50.6122 35.0749 51.2606 34.8715 51.731 34.4646C52.2142 34.045 52.4558 33.511 52.4558 32.8626C52.4558 32.354 52.3159 31.9407 52.0362 31.6229C51.7565 31.3051 51.4068 31.0634 50.9872 30.8982C50.5677 30.7329 50.0019 30.5549 49.2899 30.3642C48.4126 30.1353 47.7069 29.9065 47.1729 29.6776C46.6516 29.4487 46.2002 29.0928 45.8188 28.6096C45.4501 28.1137 45.2657 27.4526 45.2657 26.6261C45.2657 25.9014 45.4501 25.2594 45.8188 24.6999C46.1876 24.1404 46.7025 23.7082 47.3636 23.403C48.0375 23.0979 48.8067 22.9453 49.6713 22.9453C50.9173 22.9453 51.9344 23.2568 52.7228 23.8798C53.5238 24.5028 53.9751 25.3293 54.0769 26.3591H52.1697C52.1061 25.8506 51.8391 25.4056 51.3687 25.0241C50.8983 24.63 50.2752 24.4329 49.4997 24.4329C48.7749 24.4329 48.1837 24.6236 47.726 25.005C47.2683 25.3738 47.0394 25.895 47.0394 26.5689C47.0394 27.0521 47.1729 27.4462 47.4399 27.7514C47.7196 28.0565 48.0566 28.2918 48.4507 28.457C48.8576 28.6096 49.4234 28.7876 50.1481 28.991C51.0254 29.2326 51.731 29.4742 52.265 29.7158C52.799 29.9446 53.2568 30.307 53.6382 30.8028C54.0196 31.286 54.2104 31.9471 54.2104 32.7863C54.2104 33.4347 54.0387 34.045 53.6954 34.6172C53.3521 35.1893 52.8436 35.6534 52.1697 36.0094C51.4958 36.3654 50.7012 36.5434 49.7857 36.5434ZM62.791 36.5434C61.5577 36.5434 60.4325 36.2573 59.4153 35.6852C58.3981 35.1004 57.5908 34.293 56.9932 33.2631C56.4084 32.2205 56.1159 31.0508 56.1159 29.7539C56.1159 28.457 56.4084 27.2936 56.9932 26.2638C57.5908 25.2212 58.3981 24.4138 59.4153 23.8417C60.4325 23.2568 61.5577 22.9644 62.791 22.9644C64.037 22.9644 65.1685 23.2568 66.1857 23.8417C67.2029 24.4138 68.0039 25.2148 68.5888 26.2447C69.1736 27.2746 69.4661 28.4443 69.4661 29.7539C69.4661 31.0634 69.1736 32.2332 68.5888 33.2631C68.0039 34.293 67.2029 35.1004 66.1857 35.6852C65.1685 36.2573 64.037 36.5434 62.791 36.5434ZM62.791 35.0367C63.7191 35.0367 64.552 34.8206 65.2894 34.3883C66.0396 33.9561 66.6244 33.3394 67.044 32.5384C67.4762 31.7373 67.6924 30.8092 67.6924 29.7539C67.6924 28.6859 67.4762 27.7578 67.044 26.9694C66.6244 26.1684 66.0458 25.5517 65.3084 25.1195C64.571 24.6872 63.7319 24.471 62.791 24.471C61.8501 24.471 61.0109 24.6872 60.2735 25.1195C59.5361 25.5517 58.9512 26.1684 58.5189 26.9694C58.0994 27.7578 57.8896 28.6859 57.8896 29.7539C57.8896 30.8092 58.0994 31.7373 58.5189 32.5384C58.9512 33.3394 59.5361 33.9561 60.2735 34.3883C61.0237 34.8206 61.8629 35.0367 62.791 35.0367ZM71.1087 29.7539C71.1087 28.457 71.4012 27.2936 71.986 26.2638C72.571 25.2212 73.3656 24.4074 74.37 23.8226C75.3872 23.2378 76.5124 22.9453 77.7457 22.9453C79.1951 22.9453 80.4602 23.295 81.5409 23.9942C82.6217 24.6935 83.41 25.6852 83.9058 26.9694H81.827C81.4584 26.1684 80.9243 25.5517 80.225 25.1195C79.5384 24.6872 78.712 24.471 77.7457 24.471C76.8175 24.471 75.9848 24.6872 75.2473 25.1195C74.5099 25.5517 73.9313 26.1684 73.5118 26.9694C73.0922 27.7578 72.8824 28.6859 72.8824 29.7539C72.8824 30.8092 73.0922 31.7373 73.5118 32.5384C73.9313 33.3267 74.5099 33.937 75.2473 34.3692C75.9848 34.8015 76.8175 35.0177 77.7457 35.0177C78.712 35.0177 79.5384 34.8079 80.225 34.3883C80.9243 33.9561 81.4584 33.3394 81.827 32.5384H83.9058C83.41 33.8098 82.6217 34.7952 81.5409 35.4945C80.4602 36.181 79.1951 36.5243 77.7457 36.5243C76.5124 36.5243 75.3872 36.2383 74.37 35.6661C73.3656 35.0813 72.571 34.2739 71.986 33.244C71.4012 32.2141 71.1087 31.0508 71.1087 29.7539ZM88.2248 23.117V36.4099H86.4893V23.117H88.2248ZM92.9183 24.5283V28.972H97.7625V30.4023H92.9183V34.9795H98.3346V36.4099H91.1827V23.0979H98.3346V24.5283H92.9183ZM96.4275 20.2371L92.3652 22.4113V21.1144L96.4275 18.7305V20.2371ZM109.142 23.117V24.5283H105.519V36.4099H103.783V24.5283H100.141V23.117H109.142ZM113.014 24.5283V28.972H117.859V30.4023H113.014V34.9795H118.431V36.4099H111.279V23.0979H118.431V24.5283H113.014ZM116.524 20.2371L112.461 22.4113V21.1144L116.524 18.7305V20.2371ZM132.798 29.5632C133.281 29.6395 133.719 29.8366 134.113 30.1544C134.521 30.4722 134.838 30.8664 135.067 31.3368C135.308 31.8072 135.43 32.3095 135.43 32.8435C135.43 33.5174 135.257 34.1277 134.914 34.6744C134.571 35.2084 134.069 35.6344 133.408 35.9522C132.76 36.2573 131.99 36.4099 131.1 36.4099H126.141V23.117H130.909C131.811 23.117 132.581 23.2695 133.217 23.5747C133.853 23.8671 134.33 24.2676 134.647 24.7762C134.965 25.2847 135.124 25.8569 135.124 26.4926C135.124 27.281 134.907 27.9357 134.476 28.457C134.056 28.9656 133.497 29.3343 132.798 29.5632ZM127.877 28.8575H130.795C131.609 28.8575 132.237 28.6668 132.683 28.2854C133.128 27.9039 133.35 27.3763 133.35 26.7024C133.35 26.0285 133.128 25.5009 132.683 25.1195C132.237 24.738 131.596 24.5473 130.757 24.5473H127.877V28.8575ZM130.948 34.9795C131.811 34.9795 132.485 34.7761 132.969 34.3692C133.452 33.9623 133.694 33.3966 133.694 32.6719C133.694 31.9345 133.439 31.3559 132.931 30.9363C132.423 30.5041 131.742 30.2879 130.89 30.2879H127.877V34.9795H130.948ZM139.573 24.5283V28.972H144.417V30.4023H139.573V34.9795H144.989V36.4099H137.837V23.0979H144.989V24.5283H139.573ZM143.082 20.2371L139.02 22.4113V21.1144L143.082 18.7305V20.2371ZM158.066 36.4099H156.332L149.351 25.8251V36.4099H147.616V23.0979H149.351L156.332 33.6636V23.0979H158.066V36.4099ZM162.761 23.117V36.4099H161.026V23.117H162.761ZM176.17 36.4099H174.434L167.454 25.8251V36.4099H165.719V23.0979H167.454L174.434 33.6636V23.0979H176.17V36.4099ZM185.155 36.5434C183.922 36.5434 182.797 36.2573 181.779 35.6852C180.762 35.1004 179.954 34.293 179.357 33.2631C178.772 32.2205 178.48 31.0508 178.48 29.7539C178.48 28.457 178.772 27.2936 179.357 26.2638C179.954 25.2212 180.762 24.4138 181.779 23.8417C182.797 23.2568 183.922 22.9644 185.155 22.9644C186.401 22.9644 187.532 23.2568 188.55 23.8417C189.567 24.4138 190.368 25.2148 190.953 26.2447C191.537 27.2746 191.83 28.4443 191.83 29.7539C191.83 31.0634 191.537 32.2332 190.953 33.2631C190.368 34.293 189.567 35.1004 188.55 35.6852C187.532 36.2573 186.401 36.5434 185.155 36.5434ZM185.155 35.0367C186.083 35.0367 186.916 34.8206 187.654 34.3883C188.403 33.9561 188.989 33.3394 189.408 32.5384C189.84 31.7373 190.057 30.8092 190.057 29.7539C190.057 28.6859 189.84 27.7578 189.408 26.9694C188.989 26.1684 188.41 25.5517 187.673 25.1195C186.935 24.6872 186.096 24.471 185.155 24.471C184.214 24.471 183.375 24.6872 182.637 25.1195C181.901 25.5517 181.315 26.1684 180.883 26.9694C180.464 27.7578 180.254 28.6859 180.254 29.7539C180.254 30.8092 180.464 31.7373 180.883 32.5384C181.315 33.3394 181.901 33.9561 182.637 34.3883C183.387 34.8206 184.227 35.0367 185.155 35.0367ZM195.857 23.117V36.4099H194.122V23.117H195.857ZM203.03 36.5434C202.152 36.5434 201.363 36.3908 200.665 36.0857C199.979 35.7679 199.438 35.3355 199.043 34.7888C198.649 34.2293 198.446 33.5873 198.433 32.8626H200.283C200.347 33.4855 200.601 34.0133 201.046 34.4455C201.504 34.8651 202.165 35.0749 203.03 35.0749C203.856 35.0749 204.505 34.8715 204.975 34.4646C205.458 34.045 205.7 33.511 205.7 32.8626C205.7 32.354 205.559 31.9407 205.28 31.6229C205 31.3051 204.651 31.0634 204.231 30.8982C203.811 30.7329 203.246 30.5549 202.534 30.3642C201.656 30.1353 200.951 29.9065 200.416 29.6776C199.895 29.4487 199.444 29.0928 199.063 28.6096C198.693 28.1137 198.509 27.4526 198.509 26.6261C198.509 25.9014 198.693 25.2594 199.063 24.6999C199.431 24.1404 199.946 23.7082 200.607 23.403C201.281 23.0979 202.05 22.9453 202.915 22.9453C204.161 22.9453 205.178 23.2568 205.967 23.8798C206.767 24.5028 207.219 25.3293 207.321 26.3591H205.414C205.35 25.8506 205.082 25.4056 204.612 25.0241C204.142 24.63 203.519 24.4329 202.744 24.4329C202.019 24.4329 201.427 24.6236 200.97 25.005C200.512 25.3738 200.283 25.895 200.283 26.5689C200.283 27.0521 200.416 27.4462 200.684 27.7514C200.964 28.0565 201.301 28.2918 201.695 28.457C202.101 28.6096 202.667 28.7876 203.392 28.991C204.27 29.2326 204.975 29.4742 205.509 29.7158C206.043 29.9446 206.501 30.307 206.882 30.8028C207.264 31.286 207.454 31.9471 207.454 32.7863C207.454 33.4347 207.282 34.045 206.94 34.6172C206.596 35.1893 206.087 35.6534 205.414 36.0094C204.74 36.3654 203.945 36.5434 203.03 36.5434ZM211.743 24.5283V28.972H216.588V30.4023H211.743V34.9795H217.16V36.4099H210.009V23.0979H217.16V24.5283H211.743ZM49.7094 44.7893C51.1589 44.7893 52.4112 45.0627 53.4666 45.6094C54.5346 46.1434 55.3483 46.9127 55.9077 47.9171C56.4799 48.9215 56.766 50.1039 56.766 51.4644C56.766 52.8249 56.4799 54.0073 55.9077 55.0117C55.3483 56.0034 54.5346 56.7663 53.4666 57.3003C52.4112 57.8217 51.1589 58.0823 49.7094 58.0823H45.5709V44.7893H49.7094ZM49.7094 56.6519C51.4259 56.6519 52.7354 56.2006 53.6382 55.2978C54.541 54.3824 54.9923 53.1046 54.9923 51.4644C54.9923 49.8116 54.5346 48.521 53.6191 47.5928C52.7164 46.6647 51.4132 46.2006 49.7094 46.2006H47.3064V56.6519H49.7094ZM59.3222 44.7893H61.2484L59.4176 49.1186H58.197L59.3222 44.7893ZM64.9627 46.2006V50.6443H69.8069V52.0747H64.9627V56.6519H70.379V58.0823H63.2271V44.7702H70.379V46.2006H64.9627ZM68.4718 41.9095L64.4096 44.0837V42.7868L68.4718 40.4028V41.9095ZM83.4563 58.0823H81.7208L74.7406 47.4975V58.0823H73.0051V44.7702H74.7406L81.7208 55.3359V44.7702H83.4563V58.0823ZM88.1503 46.2006V50.6443H92.9945V52.0747H88.1503V56.6519H93.5667V58.0823H86.4148V44.7702H93.5667V46.2006H88.1503ZM103.192 58.0823L100.026 52.6468H97.9283V58.0823H96.1927V44.7893H100.484C101.488 44.7893 102.334 44.9609 103.02 45.3042C103.72 45.6475 104.241 46.1116 104.584 46.6965C104.928 47.2813 105.099 47.9488 105.099 48.699C105.099 49.6144 104.832 50.4218 104.298 51.1211C103.777 51.8204 102.989 52.2845 101.933 52.5133L105.271 58.0823H103.192ZM97.9283 51.2546H100.484C101.425 51.2546 102.13 51.0257 102.601 50.568C103.071 50.0976 103.306 49.4745 103.306 48.699C103.306 47.9107 103.071 47.3004 102.601 46.8681C102.143 46.4359 101.437 46.2197 100.484 46.2197H97.9283V51.2546ZM117.865 48.6418C117.497 47.8662 116.963 47.2686 116.264 46.849C115.565 46.4168 114.751 46.2006 113.822 46.2006C112.895 46.2006 112.055 46.4168 111.305 46.849C110.568 47.2686 109.983 47.8789 109.551 48.6799C109.131 49.4683 108.921 50.3837 108.921 51.4262C108.921 52.4688 109.131 53.3842 109.551 54.1726C109.983 54.9609 110.568 55.5712 111.305 56.0034C112.055 56.423 112.895 56.6328 113.822 56.6328C115.119 56.6328 116.188 56.245 117.027 55.4694C117.865 54.6939 118.355 53.645 118.495 52.3226H113.193V50.9113H120.345V52.2463C120.244 53.3398 119.9 54.3442 119.315 55.2597C118.73 56.1624 117.961 56.8807 117.007 57.4148C116.054 57.9361 114.993 58.1967 113.822 58.1967C112.589 58.1967 111.464 57.9106 110.447 57.3385C109.429 56.7536 108.622 55.9462 108.025 54.9164C107.44 53.8865 107.147 52.7231 107.147 51.4262C107.147 50.1294 107.44 48.966 108.025 47.9361C108.622 46.8936 109.429 46.0862 110.447 45.514C111.464 44.9292 112.589 44.6367 113.822 44.6367C115.234 44.6367 116.48 44.9864 117.561 45.6857C118.654 46.3849 119.448 47.3704 119.945 48.6418H117.865ZM124.376 44.7893V58.0823H122.64V44.7893H124.376ZM129.069 46.2006V50.6443H133.913V52.0747H129.069V56.6519H134.485V58.0823H127.333V44.7702H134.485V46.2006H129.069ZM143.932 46.2006V50.6443H148.776V52.0747H143.932V56.6519H149.348V58.0823H142.196V44.7702H149.348V46.2006H143.932ZM147.44 41.9095L143.378 44.0837V42.7868L147.44 40.4028V41.9095ZM153.709 56.671H158.362V58.0823H151.973V44.7893H153.709V56.671ZM161.941 46.2006V50.6443H166.785V52.0747H161.941V56.6519H167.357V58.0823H160.206V44.7702H167.357V46.2006H161.941ZM169.335 51.4262C169.335 50.1294 169.628 48.966 170.213 47.9361C170.798 46.8936 171.592 46.0798 172.597 45.495C173.614 44.9101 174.739 44.6177 175.972 44.6177C177.422 44.6177 178.687 44.9673 179.768 45.6666C180.848 46.3659 181.636 47.3576 182.133 48.6418H180.054C179.685 47.8408 179.15 47.2241 178.451 46.7918C177.766 46.3596 176.939 46.1434 175.972 46.1434C175.045 46.1434 174.211 46.3596 173.474 46.7918C172.736 47.2241 172.158 47.8408 171.738 48.6418C171.319 49.4301 171.109 50.3582 171.109 51.4262C171.109 52.4816 171.319 53.4097 171.738 54.2107C172.158 54.999 172.736 55.6093 173.474 56.0416C174.211 56.4738 175.045 56.69 175.972 56.69C176.939 56.69 177.766 56.4802 178.451 56.0607C179.15 55.6284 179.685 55.0117 180.054 54.2107H182.133C181.636 55.4821 180.848 56.4676 179.768 57.1668C178.687 57.8534 177.422 58.1967 175.972 58.1967C174.739 58.1967 173.614 57.9106 172.597 57.3385C171.592 56.7536 170.798 55.9462 170.213 54.9164C169.628 53.8865 169.335 52.7231 169.335 51.4262ZM192.897 44.7893V46.2006H189.274V58.0823H187.539V46.2006H183.896V44.7893H192.897ZM202.033 58.0823L198.867 52.6468H196.769V58.0823H195.034V44.7893H199.325C200.33 44.7893 201.175 44.9609 201.862 45.3042C202.561 45.6475 203.082 46.1116 203.426 46.6965C203.769 47.2813 203.94 47.9488 203.94 48.699C203.94 49.6144 203.674 50.4218 203.14 51.1211C202.618 51.8204 201.829 52.2845 200.774 52.5133L204.112 58.0823H202.033ZM196.769 51.2546H199.325C200.266 51.2546 200.971 51.0257 201.441 50.568C201.913 50.0976 202.148 49.4745 202.148 48.699C202.148 47.9107 201.913 47.3004 201.441 46.8681C200.984 46.4359 200.279 46.2197 199.325 46.2197H196.769V51.2546ZM208.372 44.7893V58.0823H206.637V44.7893H208.372ZM221.991 60.5997L219.341 57.9488C218.693 58.1268 218.031 58.2158 217.358 58.2158C216.123 58.2158 214.999 57.9297 213.981 57.3575C212.965 56.7727 212.157 55.9653 211.559 54.9354C210.974 53.8929 210.683 52.7231 210.683 51.4262C210.683 50.1294 210.974 48.966 211.559 47.9361C212.157 46.8936 212.965 46.0862 213.981 45.514C214.999 44.9292 216.123 44.6367 217.358 44.6367C218.603 44.6367 219.735 44.9292 220.752 45.514C221.769 46.0862 222.57 46.8872 223.155 47.9171C223.74 48.9469 224.033 50.1167 224.033 51.4262C224.033 52.6977 223.752 53.842 223.193 54.8592C222.634 55.8763 221.864 56.6773 220.886 57.2622L224.242 60.5997H221.991ZM212.455 51.4262C212.455 52.4816 212.666 53.4097 213.085 54.2107C213.517 55.0117 214.102 55.6284 214.839 56.0607C215.59 56.4929 216.429 56.7091 217.358 56.7091C218.285 56.7091 219.119 56.4929 219.855 56.0607C220.605 55.6284 221.19 55.0117 221.61 54.2107C222.042 53.4097 222.259 52.4816 222.259 51.4262C222.259 50.3582 222.042 49.4301 221.61 48.6418C221.19 47.8408 220.612 47.2241 219.875 46.7918C219.137 46.3596 218.298 46.1434 217.358 46.1434C216.416 46.1434 215.577 46.3596 214.839 46.7918C214.102 47.2241 213.517 47.8408 213.085 48.6418C212.666 49.4301 212.455 50.3582 212.455 51.4262ZM228.058 44.7893V53.1999C228.058 54.3824 228.344 55.2597 228.917 55.8318C229.501 56.404 230.308 56.69 231.339 56.69C232.356 56.69 233.15 56.404 233.722 55.8318C234.308 55.2597 234.599 54.3824 234.599 53.1999V44.7893H236.335V53.1808C236.335 54.287 236.113 55.2215 235.668 55.9844C235.222 56.7346 234.619 57.2939 233.856 57.6627C233.106 58.0314 232.261 58.2158 231.319 58.2158C230.378 58.2158 229.527 58.0314 228.764 57.6627C228.014 57.2939 227.416 56.7346 226.97 55.9844C226.539 55.2215 226.322 54.287 226.322 53.1808V44.7893H228.058ZM240.965 46.2006V50.6443H245.81V52.0747H240.965V56.6519H246.382V58.0823H239.231V44.7702H246.382V46.2006H240.965Z" fill="#ED1F24"></path>
  <path d="M41.6393 12.0527C38.5377 11.8517 35.703 12.365 33.4797 14.355C31.8605 15.8052 30.9646 17.5493 30.5782 19.5942H41.6373V23.0824H30.2C29.5412 28.6056 34.2562 31.7933 41.7137 30.9711C41.7137 32.315 41.7471 33.6555 41.6745 34.991C41.6647 35.167 41.1412 35.4312 40.8257 35.4694C38.6867 35.7286 36.7518 35.1937 34.9442 34.2584C32.2525 32.8598 30.1724 30.9196 28.3061 28.7967C27.8415 28.2685 27.4102 27.7187 26.7848 26.9595V60.5456H22.662V27.1472L22.4659 27.0973C22.3228 27.2635 22.1659 27.4064 22.0365 27.5741C20.1388 29.9928 17.951 32.1804 15.1181 33.8548C13.2262 34.9761 10.8903 35.6239 8.51425 35.4694C8.135 35.4448 7.58594 35.2301 7.58594 34.991C7.58594 33.799 7.58594 32.1688 7.58594 30.9529C11.058 31.4229 14.3789 31.3698 16.9354 29.0027C18.6802 27.3864 19.1449 25.3615 19.2115 23.1306H7.68004V19.6307H18.7959C18.2822 17.2868 17.2412 15.3001 15.1396 13.7802C12.9831 12.2238 10.4149 11.8882 7.68985 12.0494V7.70886C9.45427 7.47464 11.0344 7.78694 12.5674 8.29357C15.4885 9.25702 17.747 10.9513 19.6251 13.0311C20.6309 14.144 21.5052 15.3433 22.5659 16.6639V7.58594H26.7044V16.4695C30.3136 11.8467 34.1542 7.6773 41.6393 7.5876V12.0527ZM23.3893 58.6021C25.369 58.6021 25.9006 58.7682 25.9222 57.3663C25.9672 54.2699 25.8869 51.177 25.8555 48.0806C25.2064 46.2465 25.2064 46.0839 25.8869 44.8447C25.9301 43.7 25.9418 42.6853 25.9301 41.6155C25.9085 39.8199 25.9183 38.0209 25.8242 36.2286C25.7791 35.3798 24.8813 35.4694 23.3991 35.4694C23.3991 35.4694 23.3991 35.9478 23.3991 36.3365C23.3873 43.4726 23.3873 50.6077 23.3991 57.7416L23.3893 58.6021ZM24.0519 25.4313L23.7245 25.3599C23.6265 25.4961 23.4402 25.6323 23.4402 25.7685C23.448 27.9246 23.4716 30.0841 23.5108 32.2468C23.5226 32.8913 23.9853 33.0475 24.6871 33.0459C25.3889 33.0442 25.8222 32.8797 25.8516 32.2352C25.8634 31.9861 25.9301 31.7368 25.9379 31.4927C26.0418 27.6987 25.9967 23.918 24.9067 20.1971C24.1081 17.4155 23.8545 14.5418 24.1559 11.6906H25.3321V16.8068L25.5948 16.8616C25.7065 16.732 25.9124 16.6008 25.9124 16.4713C25.9045 14.4237 25.8738 12.3777 25.8203 10.3334C25.8085 9.86166 25.4811 9.6806 24.9184 9.66898C23.7578 9.64239 23.4814 9.75037 23.4716 10.757C23.4441 13.5809 23.1951 16.3915 23.8637 19.1938C24.7282 22.7669 25.5948 26.3499 25.2576 30.0393C25.2282 30.3598 25.2125 30.6804 25.1851 31.0592L24.0519 31.0077V25.4313Z" fill="#ED1F24"></path>
  <path d="M24.1055 47.3711C24.6091 47.3841 24.88 47.4253 25.0426 47.655C25.1576 47.8175 25.2593 47.9232 25.2593 48.4677C25.2593 50.7975 25.2484 53.9491 25.2445 56.3229C25.2445 56.4323 25.2445 56.7514 25.0426 56.7514H24.1055V47.3711Z" fill="#ED1F24"></path>
  <path d="M24.0215 37.4637C25.0428 37.4637 25.2409 37.4123 25.2291 38.1165C25.1939 40.0218 25.2428 41.9288 25.1978 43.8341C25.1512 44.2953 25.1978 44.1327 25.097 44.6204C25.0518 44.8392 24.9344 45.0538 24.7177 45.1622C24.501 45.2705 24.3926 45.2705 24.0675 45.2705C24.0539 42.7009 24.0215 40.0484 24.0215 37.4637Z" fill="#ED1F24"></path>
</svg>
